# xmcd CD database file
#
# Track frame offsets:
#	150
#	19778
#	42589
#	60051
#	76490
#	96171
#	121136
#	138703
#	174631
#	193226
#	209206
#	227041
#	248588
#	270046
#	286863
#
# Disc length: 4379 seconds
#
# Revision: 5
# Processed by: cddbd v1.5.2PL0 Copyright (c) Steve Scherf et al.
# Submitted via: CDex 1.70beta2
#
DISCID=d011190f
DTITLE=Various Artist - 4871
DYEAR=2009
DGENRE=Jazz
TTITLE0=Me Myself And I - Takadum
TTITLE1=Digit All Love - Matulu
TTITLE2=L.U.C - Happy End And Up Happy Hands
TTITLE3=Ctrl-Alt-Del - Angel's Kiss
TTITLE4=Fly Bitter - Happy New Year
TTITLE5=Acoustic Harmony - London's Break
TTITLE6=Husky - Kuki
TTITLE7=The Slawek Dudar Quartet - Round Midnight
TTITLE8=Oszibarack - Twitter
TTITLE9=Marija - There's No One
TTITLE10=Kanal Audytywny - Radiowa Piosenka o Niczym
TTITLE11=Miloopa - Come And Get Me
TTITLE12=Mikromusic - Swiat Oddala Sie Ode Mnie
TTITLE13=Husky - Po Kostki (Remix Tomek Bednarczyk)
TTITLE14=Cezary Studniak and Leszek Mozdzer - Sie Zdziwisz
EXTD=YEAR: 2009
EXTT0=
EXTT1=
EXTT2=
EXTT3=
EXTT4=
EXTT5=
EXTT6=
EXTT7=
EXTT8=
EXTT9=
EXTT10=
EXTT11=
EXTT12=
EXTT13=
EXTT14=
PLAYORDER=
